<svg width="50" height="50" viewBox="0 0 50 50" fill="none" xmlns="http://www.w3.org/2000/svg">
<path fill-rule="evenodd" clip-rule="evenodd" d="M17.5246 30.6068C18.3537 30.0039 19.4982 30.0937 20.2231 30.8186L25 35.5954L29.7769 30.8186C30.5017 30.0937 31.6463 30.0039 32.4754 30.6068L43.9337 38.9402C44.3568 39.2479 44.6486 39.7035 44.7512 40.2165L45.7929 45.4248C46.0185 46.5531 45.2868 47.6506 44.1586 47.8763C43.0303 48.1019 41.9328 47.3702 41.7071 46.242L40.825 41.8314L31.4643 35.0236L26.4731 40.0149C25.6595 40.8284 24.3404 40.8284 23.5269 40.0149L18.5356 35.0236L9.17498 41.8314L8.29287 46.242C8.06722 47.3702 6.96967 48.1019 5.84142 47.8763C4.71317 47.6506 3.98147 46.5531 4.20712 45.4248L5.24879 40.2165C5.35138 39.7035 5.64322 39.2479 6.0663 38.9402L17.5246 30.6068Z" fill="#F6F8FD"/>
<path fill-rule="evenodd" clip-rule="evenodd" d="M10.4167 16.6667C10.4167 8.61255 16.9459 2.08337 25 2.08337C33.0541 2.08337 39.5833 8.61255 39.5833 16.6667C39.5833 20.6932 37.9488 24.3419 35.312 26.9787C34.4984 27.7923 33.1793 27.7923 32.3657 26.9787C31.5521 26.1651 31.5521 24.846 32.3657 24.0324C32.9347 23.4634 33.4379 22.8295 33.8633 22.1427C33.9465 21.5468 33.7182 20.9972 33.0857 20.3341C32.4561 19.674 31.6897 19.1745 30.9306 18.6797C30.7416 18.5565 30.5531 18.4337 30.3673 18.3087C30.2905 18.2571 30.0082 18.1239 29.3829 17.9651C28.8008 17.8172 28.1076 17.6908 27.3298 17.5573C26.5842 17.4293 25.745 17.2925 24.9945 17.133C24.2699 16.979 23.4411 16.7678 22.7537 16.431C21.197 15.6681 20.3222 14.0916 19.8542 13.2482C19.7741 13.1038 19.703 12.974 19.6389 12.857C19.4894 12.5839 19.3434 12.3071 19.1683 12.0493C19.0573 12.0183 19.017 12.0324 18.9784 12.0458L18.971 12.0484C18.8147 12.1017 18.2515 12.3799 17.3321 13.6941C16.3772 15.0592 15.7118 17.4541 15.6327 21.2297C16.1418 22.2724 16.8207 23.2189 17.6343 24.0324C18.4479 24.846 18.4479 26.1651 17.6343 26.9787C16.8207 27.7923 15.5016 27.7923 14.688 26.9787C13.4114 25.7021 12.3695 24.1886 11.6342 22.508C10.8504 20.7169 10.4167 18.7397 10.4167 16.6667ZM35.4158 16.8056C35.4906 11.0765 30.7313 6.25004 25 6.25004C22.9415 6.25004 21.0224 6.84715 19.4066 7.87763C20.0662 7.9309 20.6232 8.12522 21.0442 8.30813M35.4158 16.8056C34.562 16.0597 33.6443 15.4678 33.0549 15.0876C32.2248 14.5522 31.372 14.1713 30.4087 13.9266C29.6483 13.7335 28.8061 13.5831 28.0346 13.4507C27.2309 13.3128 26.5072 13.1948 25.8607 13.0573C25.1881 12.9144 24.7856 12.7866 24.5871 12.6893C23.9881 12.3958 23.6608 11.5265 23.3542 10.9655C23.161 10.6119 22.9265 10.1827 22.6973 9.83132C22.442 9.43992 21.9192 8.68837 21.0442 8.30813" fill="#F6F8FD"/>
</svg>
